<?xml version="1.0" encoding="UTF-8" standalone="no"?>
<!-- Created with Inkscape (http://www.inkscape.org/) -->

<svg
   xmlns:dc="http://purl.org/dc/elements/1.1/"
   xmlns:cc="http://creativecommons.org/ns#"
   xmlns:rdf="http://www.w3.org/1999/02/22-rdf-syntax-ns#"
   xmlns:svg="http://www.w3.org/2000/svg"
   xmlns="http://www.w3.org/2000/svg"
   xmlns:sodipodi="http://sodipodi.sourceforge.net/DTD/sodipodi-0.dtd"
   xmlns:inkscape="http://www.inkscape.org/namespaces/inkscape"
   width="1052.3622"
   height="744.09448"
   id="svg2"
   version="1.1"
   inkscape:version="0.48.4 r9939"
   sodipodi:docname="New document 1">
  <defs
     id="defs4" />
  <sodipodi:namedview
     id="base"
     pagecolor="#ffffff"
     bordercolor="#666666"
     borderopacity="1.0"
     inkscape:pageopacity="0.0"
     inkscape:pageshadow="2"
     inkscape:zoom="1.2827411"
     inkscape:cx="620.45"
     inkscape:cy="456.93781"
     inkscape:document-units="px"
     inkscape:current-layer="layer1"
     showgrid="false"
     inkscape:window-width="1920"
     inkscape:window-height="1027"
     inkscape:window-x="0"
     inkscape:window-y="31"
     inkscape:window-maximized="1" />
  <metadata
     id="metadata7">
    <rdf:RDF>
      <cc:Work
         rdf:about="">
        <dc:format>image/svg+xml</dc:format>
        <dc:type
           rdf:resource="http://purl.org/dc/dcmitype/StillImage" />
        <dc:title></dc:title>
      </cc:Work>
    </rdf:RDF>
  </metadata>
  <g
     inkscape:label="Layer 1"
     inkscape:groupmode="layer"
     id="layer1"
     transform="translate(0,-308.2677)">
    <rect
       style="fill:#ffffff;fill-opacity:1;fill-rule:evenodd;stroke:#000000;stroke-width:15;stroke-linecap:butt;stroke-linejoin:miter;stroke-miterlimit:4;stroke-opacity:1;stroke-dasharray:none"
       id="rect2985"
       width="580.83771"
       height="272.74118"
       x="243.44676"
       y="556.37726" />
    <path
       style="font-size:medium;font-style:normal;font-variant:normal;font-weight:normal;font-stretch:normal;text-indent:0;text-align:start;text-decoration:none;line-height:normal;letter-spacing:normal;word-spacing:normal;text-transform:none;direction:ltr;block-progression:tb;writing-mode:lr-tb;text-anchor:start;baseline-shift:baseline;color:#000000;fill:#000000;fill-opacity:1;fill-rule:nonzero;stroke:none;stroke-width:15;marker:none;visibility:visible;display:inline;overflow:visible;enable-background:accumulate;font-family:Sans;-inkscape-font-specification:Sans"
       d="m 411.375,483.88722 0,12.85466 14.23448,45.32675 c 0,0 1.51362,3.62538 6.98432,7.40568 5.70172,3.93995 9.98061,3.23732 9.98061,3.23732 l 183.01198,0.29482 c 0,0 6.59326,-0.44313 11.0831,-5.07906 3.96898,-4.09811 4.96122,-6.00897 4.96122,-6.00897 l 14.05679,-45.83903 0,-12.19217 -7.5,0 -229.3125,0 z m 15,12.01795 214.3125,0 c 0,0 -10.38434,42.97519 -13.22992,45.74582 -3.37151,3.2827 -183.23866,2.48249 -186.3892,-0.14349 -3.48215,-2.90238 -14.69338,-45.60233 -14.69338,-45.60233 z"
       id="rect3763"
       inkscape:connector-curvature="0"
       sodipodi:nodetypes="cccsccsccccccccssc" />
    <path
       sodipodi:type="arc"
       style="fill:#ffffff;fill-opacity:1;stroke:#000000;stroke-width:15;stroke-miterlimit:4;stroke-opacity:1;stroke-dasharray:none"
       id="path3769"
       sodipodi:cx="365.23349"
       sodipodi:cy="410.82379"
       sodipodi:rx="51.062523"
       sodipodi:ry="51.062523"
       d="m 416.29601,410.82379 a 51.062523,51.062523 0 1 1 -102.12504,0 51.062523,51.062523 0 1 1 102.12504,0 z"
       transform="matrix(-1,0,0,-1,732.46698,1105.9153)" />
    <path
       transform="matrix(-0.60064193,0,0,-0.60064193,586.60804,941.84949)"
       d="m 416.29601,410.82379 a 51.062523,51.062523 0 1 1 -102.12504,0 51.062523,51.062523 0 1 1 102.12504,0 z"
       sodipodi:ry="51.062523"
       sodipodi:rx="51.062523"
       sodipodi:cy="410.82379"
       sodipodi:cx="365.23349"
       id="path3771"
       style="fill:#ffffff;fill-opacity:1;stroke:#000000;stroke-width:15;stroke-miterlimit:4;stroke-opacity:1;stroke-dasharray:none"
       sodipodi:type="arc" />
    <rect
       style="fill:#aaccff;fill-opacity:1;stroke:#000000;stroke-width:15;stroke-miterlimit:4;stroke-opacity:1;stroke-dasharray:none"
       id="rect3773"
       width="195.67471"
       height="62.366444"
       x="594.81995"
       y="283.3624"
       transform="translate(0,308.2677)" />
    <rect
       style="fill:#aaccff;fill-opacity:1;stroke:#000000;stroke-width:15;stroke-miterlimit:4;stroke-opacity:1;stroke-dasharray:none"
       id="rect3775"
       width="211.26633"
       height="42.87693"
       x="587.80371"
       y="364.43875"
       transform="translate(0,308.2677)" />
  </g>
</svg>
